<?xml version="1.0" standalone="no"?>
<!DOCTYPE svg PUBLIC "-//W3C//DTD SVG 20010904//EN"
 "http://www.w3.org/TR/2001/REC-SVG-20010904/DTD/svg10.dtd">
<svg version="1.0" xmlns="http://www.w3.org/2000/svg"
 width="920.000000pt" height="920.000000pt" viewBox="0 0 920.000000 920.000000"
 preserveAspectRatio="xMidYMid meet">
<metadata>
Created by potrace 1.14, written by Peter Selinger 2001-2017
</metadata>
<g transform="translate(0.000000,920.000000) scale(0.100000,-0.100000)"
fill="#000000" stroke="none">
<path d="M4205 7629 c-1024 -28 -1721 -122 -1937 -261 -116 -74 -248 -248
-344 -455 -111 -237 -229 -683 -269 -1016 l-8 -59 -44 51 c-148 169 -422 267
-667 239 -134 -16 -248 -93 -304 -208 -23 -47 -27 -68 -27 -140 0 -77 3 -91
34 -148 44 -80 104 -134 206 -183 143 -69 214 -83 420 -83 148 1 193 4 252 21
40 10 73 18 73 17 0 -1 -29 -50 -64 -108 -35 -58 -74 -134 -85 -168 -93 -284
-122 -766 -62 -1033 48 -214 109 -310 361 -569 580 -595 1571 -1284 2685
-1866 141 -74 157 -80 137 -54 -160 212 -259 385 -315 554 -38 113 -67 262
-69 349 -1 66 2 84 21 115 70 112 301 220 685 321 208 55 446 106 971 210 270
53 553 109 630 126 556 119 915 239 1079 360 60 45 142 151 188 244 111 223
137 594 68 993 -36 212 -79 327 -171 464 -22 31 -39 59 -39 61 0 2 33 -5 73
-16 59 -17 104 -20 257 -20 174 -1 190 1 275 27 187 57 298 134 352 244 24 50
28 68 28 147 0 75 -4 98 -25 140 -45 92 -139 165 -249 195 -60 16 -210 14
-301 -4 -179 -34 -359 -135 -431 -241 -30 -43 -39 -44 -39 -4 0 85 -71 440
-131 650 -133 471 -319 772 -545 879 -130 62 -459 129 -809 164 -554 56 -1282
82 -1860 65z m905 -279 c823 -32 1428 -108 1617 -204 128 -65 253 -260 352
-552 70 -205 161 -588 161 -677 0 -189 -599 -320 -1735 -379 -331 -17 -1477
-17 -1805 0 -848 44 -1375 124 -1611 242 -65 33 -116 81 -125 116 -8 31 25
208 76 409 105 412 242 701 388 812 130 99 608 176 1347 218 456 25 924 31
1335 15z m-3022 -2285 c52 -24 154 -111 174 -149 6 -11 -13 4 -41 32 -189 189
-425 129 -487 -123 -10 -41 -12 -45 -13 -19 -1 39 31 135 60 177 70 102 193
135 307 82z m5243 2 c77 -41 139 -147 153 -262 6 -45 4 -42 -17 28 -30 97 -68
152 -131 191 -104 65 -227 41 -344 -67 -44 -42 -59 -52 -44 -30 34 49 111 113
167 139 68 32 155 33 216 1z m-5193 -155 c113 -55 219 -209 263 -382 17 -67
20 -103 16 -189 -5 -122 -14 -155 -59 -231 -121 -201 -377 -133 -515 136 -62
122 -78 189 -77 329 0 100 4 130 23 178 69 175 195 233 349 159z m5139 11 c49
-23 108 -93 133 -159 34 -89 39 -243 11 -355 -32 -130 -82 -222 -165 -305
-131 -131 -257 -149 -363 -51 -53 49 -78 94 -98 179 -33 140 -10 303 64 453
102 206 276 305 418 238z m-4352 -557 c445 -71 1094 -117 1665 -117 591 0
1184 40 1655 113 110 17 215 33 233 35 46 7 89 -13 101 -49 9 -25 7 -33 -13
-53 -33 -33 -86 -58 -201 -95 -367 -118 -951 -193 -1610 -207 -810 -17 -1723
99 -2045 260 -77 38 -85 45 -88 73 -2 25 3 37 25 54 32 25 33 25 278 -14z
m465 -336 c634 -96 1373 -112 2070 -44 271 26 640 87 783 129 41 12 47 12 47
0 0 -35 -144 -97 -325 -141 -231 -56 -554 -101 -900 -125 -199 -13 -924 -7
-1080 10 -254 27 -308 34 -424 52 -258 40 -466 94 -574 148 -39 20 -73 43 -75
52 -2 13 19 11 140 -18 79 -18 231 -46 338 -63z"/>
<path d="M3134 7070 c-72 -15 -137 -52 -195 -111 -76 -77 -102 -143 -103 -260
-1 -79 2 -90 37 -161 42 -86 89 -133 177 -176 49 -24 66 -27 155 -27 88 0 107
3 157 27 74 34 152 113 186 186 22 48 26 71 26 152 1 88 -1 100 -32 162 -75
153 -249 242 -408 208z"/>
<path d="M5922 7070 c-63 -13 -159 -68 -200 -115 -168 -191 -112 -480 116
-592 51 -25 68 -28 157 -28 87 0 107 3 157 27 204 95 281 350 163 539 -35 55
-121 126 -179 148 -65 24 -156 33 -214 21z"/>
<path d="M4495 7033 c-71 -24 -156 -110 -180 -182 -23 -69 -17 -179 12 -236
87 -168 312 -221 459 -109 77 60 126 169 117 269 -7 98 -77 201 -168 248 -55
28 -172 33 -240 10z"/>
<path d="M2152 6403 c-46 -159 -53 -192 -47 -202 3 -5 27 -17 53 -27 115 -42
290 -134 338 -177 l51 -46 6 -107 c3 -58 8 -108 11 -111 14 -14 398 -62 701
-88 101 -9 400 -24 600 -30 105 -4 196 -8 203 -10 6 -3 12 -1 12 3 0 11 -132
403 -163 483 -52 137 -60 147 -150 189 -45 21 -122 51 -170 66 -71 23 -91 26
-105 16 -115 -81 -194 -106 -315 -99 -75 4 -99 10 -160 40 -40 20 -90 54 -112
76 -22 22 -50 40 -62 41 -23 0 -121 -103 -185 -195 -19 -27 -38 -50 -43 -50
-26 0 -29 156 -5 219 9 24 7 26 -18 27 -127 2 -280 34 -393 83 -13 6 -21 -12
-47 -101z"/>
<path d="M6970 6488 c-57 -25 -191 -53 -299 -63 -78 -7 -82 -8 -76 -29 3 -11
9 -59 12 -106 4 -65 1 -89 -10 -104 -13 -18 -16 -16 -51 37 -48 73 -164 197
-183 197 -8 0 -35 -18 -60 -40 -102 -90 -203 -125 -332 -117 -92 5 -173 33
-237 82 -18 14 -40 25 -48 25 -21 0 -222 -72 -271 -97 -56 -29 -71 -49 -115
-150 -30 -72 -169 -476 -174 -506 -1 -8 156 -9 259 -2 22 1 110 6 195 9 372
17 904 69 1037 102 27 7 31 21 36 136 4 97 9 108 85 160 52 36 191 105 289
144 45 18 73 35 73 44 0 8 -14 67 -31 130 -17 63 -33 125 -36 138 -7 31 -12
32 -63 10z"/>
<path d="M4124 6479 c-83 -10 -241 -24 -350 -31 l-199 -13 89 -30 c49 -17 125
-48 170 -70 l81 -40 52 -105 c29 -58 88 -213 133 -345 l80 -240 423 -2 422 -2
73 223 c87 263 151 418 189 458 32 34 114 74 244 120 l94 33 -105 7 c-241 15
-303 20 -462 38 l-167 19 -33 -30 c-18 -17 -62 -45 -98 -63 -59 -28 -74 -31
-160 -31 -82 0 -103 4 -151 26 -31 15 -74 43 -96 63 -22 20 -49 35 -59 35 -11
-1 -87 -10 -170 -20z"/>
<path d="M1310 7218 c0 -36 236 -436 348 -591 l49 -67 41 122 41 123 -128 130
c-71 72 -152 156 -182 189 -58 63 -128 116 -153 116 -10 0 -16 -9 -16 -22z"/>
<path d="M7800 7197 c-30 -24 -91 -86 -135 -137 -44 -51 -118 -129 -165 -174
l-86 -81 41 -123 41 -122 56 77 c110 155 331 526 344 579 10 39 -32 31 -96
-19z"/>
</g>
</svg>
